<svg xmlns="http://www.w3.org/2000/svg" xmlns:xlink="http://www.w3.org/1999/xlink" version="1.1" x="0px" y="0px" viewBox="0 0 100 100" enable-background="new 0 0 100 100" xml:space="preserve"><path fill="#000000" d="M100,46.652h-3.429c-1.603-9.484-9.852-16.739-19.785-16.739c-7.56,0-14.15,4.199-17.578,10.385  c-2.402-2.282-5.642-3.693-9.209-3.693c-3.567,0-6.804,1.411-9.207,3.693c-3.429-6.186-10.019-10.385-17.578-10.385  c-9.934,0-18.184,7.255-19.785,16.739H0v6.695h3.429c1.602,9.485,9.851,16.739,19.785,16.739c11.077,0,20.087-9.012,20.087-20.087  c0-3.694,3.004-6.699,6.697-6.699c3.695,0,6.7,3.005,6.7,6.699c0,11.075,9.011,20.087,20.088,20.087  c9.934,0,18.183-7.254,19.785-16.739H100V46.652z M23.214,63.392c-7.384,0-13.392-6.008-13.392-13.392s6.008-13.392,13.392-13.392  S36.606,42.616,36.606,50S30.598,63.392,23.214,63.392z M76.786,63.392c-7.384,0-13.392-6.008-13.392-13.392  s6.008-13.392,13.392-13.392c7.383,0,13.392,6.008,13.392,13.392S84.169,63.392,76.786,63.392z"></path></svg>